<svg width="188" height="49" viewBox="0 0 188 49" fill="none" xmlns="http://www.w3.org/2000/svg">
<g filter="url(#filter0_d_209_153)">
<path d="M5 22.5C5 12.835 12.835 5 22.5 5H165.5C175.165 5 183 12.835 183 22.5C183 32.165 175.165 40 165.5 40H22.5C12.835 40 5 32.165 5 22.5Z" fill="#BDE7C7" shape-rendering="crispEdges"/>
<path d="M5 22.5C5 12.835 12.835 5 22.5 5H165.5C175.165 5 183 12.835 183 22.5C183 32.165 175.165 40 165.5 40H22.5C12.835 40 5 32.165 5 22.5Z" stroke="#BDE7C7" stroke-opacity="0.3" shape-rendering="crispEdges"/>
</g>
<g filter="url(#filter1_b_209_153)">
<path d="M55.04 29.24C54.1867 29.24 53.4067 29.02 52.7 28.58C51.9933 28.14 51.4333 27.52 51.02 26.72C50.6067 25.9067 50.4 24.9533 50.4 23.86C50.4 22.8067 50.6067 21.8667 51.02 21.04C51.4467 20.2133 52.0067 19.56 52.7 19.08C53.4067 18.6 54.18 18.36 55.02 18.36C55.7133 18.36 56.3067 18.5 56.8 18.78C57.3067 19.06 57.7 19.3467 57.98 19.64V14.2H59.78V26.48C59.78 26.9867 59.9 27.32 60.14 27.48C60.3933 27.6267 60.6667 27.7 60.96 27.7L60.58 29.1C59.3133 29.1 58.54 28.5933 58.26 27.58C57.9667 27.9933 57.5533 28.3733 57.02 28.72C56.5 29.0667 55.84 29.24 55.04 29.24ZM55.44 27.64C55.9333 27.64 56.4 27.5267 56.84 27.3C57.2933 27.06 57.6733 26.7533 57.98 26.38V21.22C57.7267 20.9 57.3733 20.6067 56.92 20.34C56.4667 20.06 55.9667 19.92 55.42 19.92C54.78 19.92 54.22 20.0933 53.74 20.44C53.26 20.7867 52.8867 21.2533 52.62 21.84C52.3667 22.4133 52.24 23.0667 52.24 23.8C52.24 24.5333 52.38 25.1933 52.66 25.78C52.94 26.3533 53.32 26.8067 53.8 27.14C54.2933 27.4733 54.84 27.64 55.44 27.64ZM63.835 33.64C63.435 33.64 63.0817 33.6 62.775 33.52C62.4817 33.44 62.2483 33.3467 62.075 33.24L62.475 31.74C62.635 31.8333 62.835 31.9133 63.075 31.98C63.315 32.0467 63.5817 32.08 63.875 32.08C64.435 32.08 64.935 31.9 65.375 31.54C65.815 31.18 66.235 30.4733 66.635 29.42L67.095 28.22H66.135L62.075 19.08L63.675 18.36L67.555 27.02L70.575 18.44L72.235 19.08L68.415 29.52C68.0283 30.5867 67.6083 31.42 67.155 32.02C66.7017 32.62 66.2017 33.04 65.655 33.28C65.1083 33.52 64.5017 33.64 63.835 33.64ZM78.2838 29.24C77.2838 29.24 76.4904 28.9133 75.9038 28.26C75.3304 27.5933 75.0438 26.6467 75.0438 25.42V20.54H73.2438V18.98H75.0838L75.4638 15.7H76.8438V18.98H79.7238V20.54H76.8438V25.56C76.8438 26.3333 77.0038 26.8733 77.3238 27.18C77.6571 27.4867 78.0504 27.64 78.5038 27.64C78.8371 27.64 79.1504 27.5867 79.4438 27.48C79.7504 27.3733 80.0304 27.2467 80.2838 27.1L80.7838 28.54C80.5171 28.7 80.1571 28.8533 79.7038 29C79.2504 29.16 78.7771 29.24 78.2838 29.24ZM86.1883 29.24C85.4016 29.24 84.6883 29.14 84.0483 28.94C83.4216 28.74 82.9016 28.48 82.4883 28.16L83.2483 26.66C83.5949 26.9533 84.0283 27.2 84.5483 27.4C85.0816 27.5867 85.6483 27.68 86.2483 27.68C86.9949 27.68 87.5549 27.56 87.9283 27.32C88.3149 27.0667 88.5083 26.7467 88.5083 26.36C88.5083 26.08 88.4349 25.8333 88.2883 25.62C88.1549 25.4067 87.9016 25.2 87.5283 25C87.1549 24.7867 86.6149 24.56 85.9083 24.32C84.9349 23.9867 84.2016 23.5933 83.7083 23.14C83.2283 22.6733 82.9883 22.0333 82.9883 21.22C82.9883 20.42 83.3349 19.7467 84.0283 19.2C84.7349 18.64 85.7083 18.36 86.9483 18.36C87.6149 18.36 88.2083 18.4333 88.7283 18.58C89.2483 18.7133 89.7149 18.8867 90.1283 19.1L89.6283 20.58C89.2683 20.3667 88.8549 20.1933 88.3883 20.06C87.9349 19.9267 87.4283 19.86 86.8683 19.86C86.1749 19.86 85.6483 20 85.2883 20.28C84.9283 20.56 84.7483 20.8667 84.7483 21.2C84.7483 21.52 84.8883 21.7933 85.1683 22.02C85.4483 22.2467 85.9949 22.4933 86.8083 22.76C88.1283 23.2 89.0483 23.6867 89.5683 24.22C90.0883 24.7533 90.3483 25.42 90.3483 26.22C90.3483 27.1533 89.9683 27.8933 89.2083 28.44C88.4616 28.9733 87.4549 29.24 86.1883 29.24ZM93.3438 29V18.6H95.1438V29H93.3438ZM94.2438 16.82C93.8971 16.82 93.5971 16.6933 93.3438 16.44C93.1038 16.1867 92.9838 15.8933 92.9838 15.56C92.9838 15.1733 93.0971 14.8667 93.3238 14.64C93.5504 14.4133 93.8571 14.3 94.2438 14.3C94.5904 14.3 94.8838 14.4267 95.1238 14.68C95.3771 14.92 95.5038 15.2133 95.5038 15.56C95.5038 15.9333 95.3904 16.24 95.1638 16.48C94.9371 16.7067 94.6304 16.82 94.2438 16.82ZM98.9438 29V18.6H100.684V20.34C101.057 19.78 101.53 19.3133 102.104 18.94C102.69 18.5533 103.384 18.36 104.184 18.36C105.357 18.36 106.23 18.7133 106.804 19.42C107.39 20.1267 107.684 21.06 107.684 22.22V29H105.884V22.42C105.884 21.6733 105.704 21.0733 105.344 20.62C104.997 20.1667 104.51 19.94 103.884 19.94C103.27 19.94 102.69 20.16 102.144 20.6C101.597 21.0267 101.13 21.5333 100.744 22.12V29H98.9438ZM115.54 29.24C114.046 29.24 112.86 28.7667 111.98 27.82C111.113 26.86 110.68 25.52 110.68 23.8C110.68 22.76 110.873 21.8333 111.26 21.02C111.66 20.1933 112.213 19.5467 112.92 19.08C113.626 18.6 114.446 18.36 115.38 18.36C116.38 18.36 117.206 18.58 117.86 19.02C118.526 19.4467 119.026 20.0267 119.36 20.76C119.693 21.4933 119.86 22.3 119.86 23.18C119.86 23.6467 119.84 24.1 119.8 24.54H112.52C112.64 25.5133 112.98 26.2733 113.54 26.82C114.1 27.3667 114.84 27.64 115.76 27.64C116.36 27.64 116.9 27.58 117.38 27.46C117.86 27.3267 118.32 27.16 118.76 26.96L119.18 28.5C118.7 28.7133 118.16 28.8867 117.56 29.02C116.96 29.1667 116.286 29.24 115.54 29.24ZM112.5 23.08H118.2C118.2 22.0667 117.946 21.2867 117.44 20.74C116.933 20.1933 116.233 19.92 115.34 19.92C114.566 19.92 113.926 20.1933 113.42 20.74C112.913 21.2733 112.606 22.0533 112.5 23.08ZM122.859 29V18.6H124.599V20.34C124.972 19.78 125.445 19.3133 126.019 18.94C126.592 18.5533 127.245 18.36 127.979 18.36C128.805 18.36 129.479 18.56 129.999 18.96C130.532 19.36 130.905 19.8933 131.119 20.56C131.532 19.9467 132.019 19.4267 132.579 19C133.152 18.5733 133.859 18.36 134.699 18.36C135.832 18.36 136.672 18.72 137.219 19.44C137.779 20.1467 138.059 21.0733 138.059 22.22V29H136.259V22.36C136.259 21.64 136.092 21.06 135.759 20.62C135.425 20.1667 134.965 19.94 134.379 19.94C133.779 19.94 133.219 20.1667 132.699 20.62C132.192 21.06 131.745 21.58 131.359 22.18V29H129.559V22.36C129.559 21.64 129.392 21.06 129.059 20.62C128.725 20.1667 128.265 19.94 127.679 19.94C127.092 19.94 126.539 20.16 126.019 20.6C125.499 21.0267 125.045 21.5333 124.659 22.12V29H122.859ZM145.399 29.24C144.399 29.24 143.606 28.9133 143.019 28.26C142.446 27.5933 142.159 26.6467 142.159 25.42V20.54H140.359V18.98H142.199L142.579 15.7H143.959V18.98H146.839V20.54H143.959V25.56C143.959 26.3333 144.119 26.8733 144.439 27.18C144.773 27.4867 145.166 27.64 145.619 27.64C145.953 27.64 146.266 27.5867 146.559 27.48C146.866 27.3733 147.146 27.2467 147.399 27.1L147.899 28.54C147.633 28.7 147.273 28.8533 146.819 29C146.366 29.16 145.893 29.24 145.399 29.24ZM153.898 29.24C153.031 29.24 152.245 29.02 151.538 28.58C150.831 28.14 150.265 27.52 149.838 26.72C149.425 25.9067 149.218 24.9533 149.218 23.86C149.218 22.82 149.425 21.8867 149.838 21.06C150.265 20.2333 150.845 19.58 151.578 19.1C152.325 18.6067 153.178 18.36 154.138 18.36C154.738 18.36 155.278 18.4667 155.758 18.68C156.251 18.88 156.678 19.1333 157.038 19.44V18.6H158.678V26.48C158.678 26.9867 158.798 27.32 159.038 27.48C159.291 27.6267 159.565 27.7 159.858 27.7L159.478 29.1C158.198 29.1 157.425 28.58 157.158 27.54C156.851 27.9667 156.431 28.36 155.898 28.72C155.378 29.0667 154.711 29.24 153.898 29.24ZM154.298 27.64C154.805 27.64 155.285 27.52 155.738 27.28C156.191 27.0267 156.571 26.7133 156.878 26.34V20.76C156.518 20.5067 156.118 20.3067 155.678 20.16C155.251 20 154.798 19.92 154.318 19.92C153.678 19.92 153.111 20.0867 152.618 20.42C152.138 20.74 151.758 21.1933 151.478 21.78C151.198 22.3533 151.058 23.0267 151.058 23.8C151.058 24.5467 151.198 25.2133 151.478 25.8C151.758 26.3733 152.145 26.8267 152.638 27.16C153.131 27.48 153.685 27.64 154.298 27.64ZM162.862 29V18.6H164.602V20.34C164.975 19.78 165.448 19.3133 166.022 18.94C166.608 18.5533 167.302 18.36 168.102 18.36C169.275 18.36 170.148 18.7133 170.722 19.42C171.308 20.1267 171.602 21.06 171.602 22.22V29H169.802V22.42C169.802 21.6733 169.622 21.0733 169.262 20.62C168.915 20.1667 168.428 19.94 167.802 19.94C167.188 19.94 166.608 20.16 166.062 20.6C165.515 21.0267 165.048 21.5333 164.662 22.12V29H162.862Z" fill="white"/>
</g>
<mask id="path-3-inside-1_209_153" fill="white">
<path d="M26.1153 22.4999C26.1153 20.2381 28.0134 18.404 30.3556 18.404C32.6977 18.404 34.5969 20.2381 34.5969 22.4999C34.5969 24.7618 32.6977 26.5958 30.3556 26.5958C28.0134 26.5958 26.1153 24.7618 26.1153 22.4999ZM23.8225 22.4999C23.8225 25.9844 26.7473 28.809 30.3556 28.809C33.9638 28.809 36.8887 25.9844 36.8887 22.4999C36.8887 19.0154 33.9638 16.1908 30.3556 16.1908C26.7473 16.1908 23.8225 19.0154 23.8225 22.4999ZM35.6206 15.9406C35.6205 16.2323 35.7099 16.5174 35.8775 16.7599C36.0452 17.0024 36.2836 17.1915 36.5625 17.3032C36.8414 17.4149 37.1484 17.4442 37.4446 17.3874C37.7408 17.3307 38.0129 17.1903 38.2265 16.9842C38.4401 16.7781 38.5856 16.5154 38.6446 16.2295C38.7037 15.9435 38.6736 15.647 38.5581 15.3775C38.4427 15.1081 38.2471 14.8777 37.9961 14.7156C37.7451 14.5535 37.4499 14.4669 37.148 14.4668H37.1473C36.7426 14.467 36.3544 14.6223 36.0682 14.8987C35.7819 15.175 35.6209 15.5498 35.6206 15.9406ZM25.2155 32.5011C23.975 32.4465 23.3008 32.247 22.8528 32.0784C22.2588 31.8551 21.8349 31.5891 21.3893 31.1593C20.9437 30.7296 20.6679 30.3207 20.4376 29.7471C20.263 29.3146 20.0564 28.6633 20 27.4654C19.9383 26.1702 19.926 25.7812 19.926 22.5C19.926 19.2189 19.9393 18.8309 20 17.5347C20.0565 16.3368 20.2646 15.6867 20.4376 15.253C20.6689 14.6793 20.9443 14.27 21.3893 13.8397C21.8343 13.4094 22.2577 13.143 22.8528 12.9207C23.3006 12.752 23.975 12.5524 25.2155 12.498C26.5566 12.4384 26.9595 12.4265 30.3556 12.4265C33.7517 12.4265 34.155 12.4394 35.4972 12.498C36.7377 12.5525 37.4108 12.7536 37.8599 12.9207C38.4539 13.143 38.8778 13.41 39.3234 13.8397C39.769 14.2694 40.0438 14.6793 40.2751 15.253C40.4497 15.6855 40.6563 16.3368 40.7127 17.5347C40.7744 18.8309 40.7867 19.2189 40.7867 22.5C40.7867 25.7812 40.7744 26.1691 40.7127 27.4654C40.6562 28.6633 40.4486 29.3144 40.2751 29.7471C40.0438 30.3207 39.7684 30.73 39.3234 31.1593C38.8784 31.5887 38.4539 31.8551 37.8599 32.0784C37.4121 32.2471 36.7377 32.4466 35.4972 32.5011C34.1561 32.5606 33.7532 32.5725 30.3556 32.5725C26.9579 32.5725 26.5562 32.5606 25.2155 32.5011ZM25.1101 10.2875C23.7557 10.3471 22.8302 10.5545 22.0219 10.8582C21.1848 11.1719 20.4762 11.5927 19.7681 12.2754C19.06 12.9582 18.6254 13.6436 18.3006 14.452C17.9861 15.233 17.7713 16.1263 17.7096 17.4343C17.6469 18.7444 17.6326 19.1632 17.6326 22.4999C17.6326 25.8366 17.6469 26.2554 17.7096 27.5655C17.7713 28.8736 17.9861 29.7668 18.3006 30.5479C18.6254 31.3557 19.0601 32.0419 19.7681 32.7244C20.4761 33.4068 21.1848 33.8271 22.0219 34.1416C22.8317 34.4453 23.7557 34.6527 25.1101 34.7123C26.4674 34.7719 26.9004 34.7867 30.3556 34.7867C33.8108 34.7867 34.2445 34.7728 35.601 34.7123C36.9556 34.6527 37.8805 34.4453 38.6893 34.1416C39.5258 33.8271 40.235 33.4071 40.9431 32.7244C41.6512 32.0416 42.0849 31.3557 42.4106 30.5479C42.7251 29.7668 42.9409 28.8735 43.0016 27.5655C43.0632 26.2545 43.0776 25.8366 43.0776 22.4999C43.0776 19.1632 43.0632 18.7444 43.0016 17.4343C42.9399 16.1262 42.7251 15.2325 42.4106 14.452C42.0849 13.6441 41.6501 12.9593 40.9431 12.2754C40.2361 11.5916 39.5258 11.1719 38.6903 10.8582C37.8805 10.5545 36.9555 10.3461 35.6021 10.2875C34.2455 10.228 33.8118 10.2131 30.3566 10.2131C26.9014 10.2131 26.4674 10.227 25.1101 10.2875Z"/>
</mask>
<path d="M26.1153 22.4999C26.1153 20.2381 28.0134 18.404 30.3556 18.404C32.6977 18.404 34.5969 20.2381 34.5969 22.4999C34.5969 24.7618 32.6977 26.5958 30.3556 26.5958C28.0134 26.5958 26.1153 24.7618 26.1153 22.4999ZM23.8225 22.4999C23.8225 25.9844 26.7473 28.809 30.3556 28.809C33.9638 28.809 36.8887 25.9844 36.8887 22.4999C36.8887 19.0154 33.9638 16.1908 30.3556 16.1908C26.7473 16.1908 23.8225 19.0154 23.8225 22.4999ZM35.6206 15.9406C35.6205 16.2323 35.7099 16.5174 35.8775 16.7599C36.0452 17.0024 36.2836 17.1915 36.5625 17.3032C36.8414 17.4149 37.1484 17.4442 37.4446 17.3874C37.7408 17.3307 38.0129 17.1903 38.2265 16.9842C38.4401 16.7781 38.5856 16.5154 38.6446 16.2295C38.7037 15.9435 38.6736 15.647 38.5581 15.3775C38.4427 15.1081 38.2471 14.8777 37.9961 14.7156C37.7451 14.5535 37.4499 14.4669 37.148 14.4668H37.1473C36.7426 14.467 36.3544 14.6223 36.0682 14.8987C35.7819 15.175 35.6209 15.5498 35.6206 15.9406ZM25.2155 32.5011C23.975 32.4465 23.3008 32.247 22.8528 32.0784C22.2588 31.8551 21.8349 31.5891 21.3893 31.1593C20.9437 30.7296 20.6679 30.3207 20.4376 29.7471C20.263 29.3146 20.0564 28.6633 20 27.4654C19.9383 26.1702 19.926 25.7812 19.926 22.5C19.926 19.2189 19.9393 18.8309 20 17.5347C20.0565 16.3368 20.2646 15.6867 20.4376 15.253C20.6689 14.6793 20.9443 14.27 21.3893 13.8397C21.8343 13.4094 22.2577 13.143 22.8528 12.9207C23.3006 12.752 23.975 12.5524 25.2155 12.498C26.5566 12.4384 26.9595 12.4265 30.3556 12.4265C33.7517 12.4265 34.155 12.4394 35.4972 12.498C36.7377 12.5525 37.4108 12.7536 37.8599 12.9207C38.4539 13.143 38.8778 13.41 39.3234 13.8397C39.769 14.2694 40.0438 14.6793 40.2751 15.253C40.4497 15.6855 40.6563 16.3368 40.7127 17.5347C40.7744 18.8309 40.7867 19.2189 40.7867 22.5C40.7867 25.7812 40.7744 26.1691 40.7127 27.4654C40.6562 28.6633 40.4486 29.3144 40.2751 29.7471C40.0438 30.3207 39.7684 30.73 39.3234 31.1593C38.8784 31.5887 38.4539 31.8551 37.8599 32.0784C37.4121 32.2471 36.7377 32.4466 35.4972 32.5011C34.1561 32.5606 33.7532 32.5725 30.3556 32.5725C26.9579 32.5725 26.5562 32.5606 25.2155 32.5011ZM25.1101 10.2875C23.7557 10.3471 22.8302 10.5545 22.0219 10.8582C21.1848 11.1719 20.4762 11.5927 19.7681 12.2754C19.06 12.9582 18.6254 13.6436 18.3006 14.452C17.9861 15.233 17.7713 16.1263 17.7096 17.4343C17.6469 18.7444 17.6326 19.1632 17.6326 22.4999C17.6326 25.8366 17.6469 26.2554 17.7096 27.5655C17.7713 28.8736 17.9861 29.7668 18.3006 30.5479C18.6254 31.3557 19.0601 32.0419 19.7681 32.7244C20.4761 33.4068 21.1848 33.8271 22.0219 34.1416C22.8317 34.4453 23.7557 34.6527 25.1101 34.7123C26.4674 34.7719 26.9004 34.7867 30.3556 34.7867C33.8108 34.7867 34.2445 34.7728 35.601 34.7123C36.9556 34.6527 37.8805 34.4453 38.6893 34.1416C39.5258 33.8271 40.235 33.4071 40.9431 32.7244C41.6512 32.0416 42.0849 31.3557 42.4106 30.5479C42.7251 29.7668 42.9409 28.8735 43.0016 27.5655C43.0632 26.2545 43.0776 25.8366 43.0776 22.4999C43.0776 19.1632 43.0632 18.7444 43.0016 17.4343C42.9399 16.1262 42.7251 15.2325 42.4106 14.452C42.0849 13.6441 41.6501 12.9593 40.9431 12.2754C40.2361 11.5916 39.5258 11.1719 38.6903 10.8582C37.8805 10.5545 36.9555 10.3461 35.6021 10.2875C34.2455 10.228 33.8118 10.2131 30.3566 10.2131C26.9014 10.2131 26.4674 10.227 25.1101 10.2875Z" fill="url(#paint0_radial_209_153)"/>
<path d="M37.148 14.4668L37.1615 -20.5332H37.148V14.4668ZM37.1473 14.4668V-20.5332H37.1395L37.1316 -20.5332L37.1473 14.4668ZM22.8528 32.0784L35.1776 -0.679777L35.1696 -0.682777L22.8528 32.0784ZM20.4376 29.7471L52.9191 16.7104L52.9051 16.6756L52.8911 16.6408L20.4376 29.7471ZM20 27.4654L54.9613 25.8196L54.9608 25.81L54.9603 25.8003L20 27.4654ZM20 17.5347L-14.9612 15.886L-14.9618 15.8984L20 17.5347ZM20.4376 15.253L-12.0239 2.16676L-12.0477 2.22587L-12.0713 2.28506L20.4376 15.253ZM22.8528 12.9207L35.1037 45.7065L35.1463 45.6906L35.1888 45.6746L22.8528 12.9207ZM25.2155 12.498L26.7505 47.4643L26.7595 47.4639L26.7685 47.4635L25.2155 12.498ZM35.4972 12.498L37.035 -22.4682L37.0234 -22.4687L35.4972 12.498ZM37.8599 12.9207L50.1293 -19.8584L50.0964 -19.8707L50.0634 -19.8829L37.8599 12.9207ZM40.2751 15.253L7.81354 28.3392L7.81757 28.3492L7.82161 28.3592L40.2751 15.253ZM40.7127 17.5347L5.75145 19.1804L5.75187 19.1893L5.7523 19.1983L40.7127 17.5347ZM40.7127 27.4654L5.7523 25.8017L5.75194 25.8092L5.75159 25.8167L40.7127 27.4654ZM40.2751 29.7471L72.7366 42.8333L72.7482 42.8046L72.7597 42.7758L40.2751 29.7471ZM37.8599 32.0784L25.5431 -0.682777L25.5335 -0.679172L25.5239 -0.675559L37.8599 32.0784ZM35.4972 32.5011L33.9622 -2.46526L33.9532 -2.46486L33.9442 -2.46446L35.4972 32.5011ZM25.1101 10.2875L26.6479 45.2537L26.6589 45.2533L26.67 45.2528L25.1101 10.2875ZM22.0219 10.8582L34.3028 43.6329L34.3182 43.6272L34.3336 43.6214L22.0219 10.8582ZM18.3006 14.452L50.7672 27.5257L50.7722 27.5132L50.7772 27.5007L18.3006 14.452ZM17.7096 17.4343L52.6696 19.1075L52.6702 19.0952L52.6708 19.083L17.7096 17.4343ZM17.7096 27.5655L52.6708 25.917L52.6702 25.9047L52.6696 25.8923L17.7096 27.5655ZM18.3006 30.5479L50.7745 17.4923L50.7708 17.4832L50.7672 17.4742L18.3006 30.5479ZM22.0219 34.1416L9.71065 66.9049L9.72062 66.9086L9.73059 66.9124L22.0219 34.1416ZM25.1101 34.7123L23.5724 69.6785L23.5756 69.6786L25.1101 34.7123ZM35.601 34.7123L34.0634 -0.253917L34.0519 -0.253411L34.0404 -0.252898L35.601 34.7123ZM38.6893 34.1416L50.9941 66.9073L51.0071 66.9024L38.6893 34.1416ZM42.4106 30.5479L74.8717 43.6351L74.8745 43.6283L74.8772 43.6216L42.4106 30.5479ZM43.0016 27.5655L8.04023 25.9207L8.03968 25.9323L8.03914 25.944L43.0016 27.5655ZM43.0016 17.4343L77.9628 15.7883L77.9627 15.7858L43.0016 17.4343ZM42.4106 14.452L74.8743 1.3712L74.8717 1.36478L42.4106 14.452ZM38.6903 10.8582L50.9909 -21.9091L50.9816 -21.9125L38.6903 10.8582ZM35.6021 10.2875L34.0667 45.2539L34.0776 45.2543L34.0885 45.2548L35.6021 10.2875ZM61.1153 22.4999C61.1153 40.6982 46.1935 53.404 30.3556 53.404V-16.596C9.83336 -16.596 -8.88474 -0.222095 -8.88474 22.4999H61.1153ZM30.3556 53.404C14.5288 53.404 -0.403067 40.709 -0.403067 22.4999H69.5969C69.5969 -0.232836 50.8667 -16.596 30.3556 -16.596V53.404ZM-0.403067 22.4999C-0.403067 4.29086 14.5288 -8.40416 30.3556 -8.40416V61.5958C50.8667 61.5958 69.5969 45.2327 69.5969 22.4999H-0.403067ZM30.3556 -8.40416C46.1935 -8.40416 61.1153 4.3016 61.1153 22.4999H-8.88474C-8.88474 45.2219 9.83337 61.5958 30.3556 61.5958V-8.40416ZM-11.1775 22.4999C-11.1775 46.4554 8.57839 63.809 30.3556 63.809V-6.19097C44.9163 -6.19097 58.8225 5.51354 58.8225 22.4999H-11.1775ZM30.3556 63.809C52.1328 63.809 71.8887 46.4554 71.8887 22.4999H1.88871C1.88871 5.51354 15.7949 -6.19097 30.3556 -6.19097V63.809ZM71.8887 22.4999C71.8887 -1.45552 52.1328 -18.8092 30.3556 -18.8092V51.1908C15.7949 51.1908 1.88871 39.4863 1.88871 22.4999H71.8887ZM30.3556 -18.8092C8.57839 -18.8092 -11.1775 -1.45552 -11.1775 22.4999H58.8225C58.8225 39.4863 44.9163 51.1908 30.3556 51.1908V-18.8092ZM0.620581 15.9261C0.617479 23.4176 2.92105 30.636 7.08729 36.6627L64.6678 -3.14291C68.4987 2.39867 70.6234 9.04691 70.6206 15.9551L0.620581 15.9261ZM7.08729 36.6627C11.2426 42.6735 17.0196 47.1791 23.5508 49.7947L49.5742 -15.1883C55.5476 -12.7962 60.8479 -8.66863 64.6678 -3.14291L7.08729 36.6627ZM23.5508 49.7947C30.073 52.4066 37.1843 53.0746 44.0338 51.7616L30.8554 -16.9867C37.1125 -18.1861 43.6099 -17.5768 49.5742 -15.1883L23.5508 49.7947ZM44.0338 51.7616C50.888 50.4477 57.3459 47.1726 62.5298 42.1705L13.9232 -8.20209C18.6798 -12.792 24.5935 -15.7864 30.8554 -16.9867L44.0338 51.7616ZM62.5298 42.1705C67.7268 37.1557 71.4132 30.6149 72.9221 23.3045L4.36719 9.15441C5.75803 2.41602 9.15341 -3.59953 13.9232 -8.20209L62.5298 42.1705ZM72.9221 23.3045C74.4329 15.9847 73.6502 8.4105 70.7298 1.59408L6.38645 29.161C3.69695 22.8835 2.97441 15.9022 4.36719 9.15441L72.9221 23.3045ZM70.7298 1.59408C67.8159 -5.20723 62.9657 -10.8229 56.9843 -14.6858L19.0078 44.1171C13.5284 40.5784 9.06948 35.4234 6.38645 29.161L70.7298 1.59408ZM56.9843 -14.6858C51.0152 -18.5408 44.1195 -20.5305 37.1615 -20.5332L37.1344 49.4668C30.7803 49.4644 24.4749 47.6479 19.0078 44.1171L56.9843 -14.6858ZM37.148 -20.5332H37.1473V49.4668H37.148V-20.5332ZM37.1316 -20.5332C27.8382 -20.529 18.6916 -16.9742 11.7599 -10.2828L60.3765 40.0801C54.0173 46.2188 45.6469 49.463 37.1631 49.4668L37.1316 -20.5332ZM11.7599 -10.2828C4.7867 -3.55142 0.629622 5.84262 0.620592 15.9093L70.6206 15.972C70.6122 25.2569 66.7771 33.9014 60.3765 40.0801L11.7599 -10.2828ZM26.7533 -2.46514C27.7369 -2.42188 29.112 -2.2933 30.7618 -1.95529C32.5295 -1.59313 34.0402 -1.10772 35.1776 -0.679776L10.5279 64.8366C14.4247 66.3027 18.7391 67.2501 23.6777 67.4673L26.7533 -2.46514ZM35.1696 -0.682777C36.6465 -0.127522 38.5749 0.73506 40.6773 2.05512C42.7938 3.38408 44.4562 4.78069 45.6854 5.9661L-2.90678 56.3526C1.06805 60.1859 5.59833 62.9832 10.5359 64.8396L35.1696 -0.682777ZM45.6854 5.9661C46.909 7.14614 48.4059 8.79433 49.8556 10.9452C51.3067 13.0981 52.2777 15.1124 52.9191 16.7104L-12.0438 42.7837C-9.96518 47.9628 -6.89184 52.5094 -2.90678 56.3526L45.6854 5.9661ZM52.8911 16.6408C53.3791 17.8492 53.9388 19.4693 54.3594 21.3838C54.7534 23.1777 54.9084 24.6972 54.9613 25.8196L-14.9613 29.1111C-14.718 34.2811 -13.6509 38.8045 -12.0158 42.8533L52.8911 16.6408ZM54.9603 25.8003C54.9354 25.2768 54.9372 25.2839 54.9353 25.1633C54.9298 24.8217 54.926 24.1835 54.926 22.5H-15.074C-15.074 25.9203 -15.0628 26.9804 -14.9604 29.1304L54.9603 25.8003ZM54.926 22.5C54.926 20.8233 54.93 20.184 54.9356 19.8439C54.9377 19.7149 54.9362 19.7159 54.9617 19.1709L-14.9618 15.8984C-15.061 18.0196 -15.074 19.0532 -15.074 22.5H54.926ZM54.9611 19.1834C54.9073 20.3248 54.7495 21.8487 54.3556 23.6368C53.9358 25.5427 53.3856 27.1203 52.9466 28.2209L-12.0713 2.28506C-13.623 6.17489 -14.7139 10.6421 -14.9612 15.886L54.9611 19.1834ZM52.8992 28.3392C52.2656 29.9109 51.3042 31.904 49.8661 34.0399C48.4278 36.1761 46.9416 37.8182 45.7199 38.9996L-2.94128 -11.3202C-6.91647 -7.47607 -9.96034 -2.95206 -12.0239 2.16676L52.8992 28.3392ZM45.7199 38.9996C44.4914 40.1876 42.82 41.5968 40.684 42.9388C38.5602 44.273 36.6074 45.1447 35.1037 45.7065L10.6018 -19.8652C5.59702 -17.9951 1.03776 -15.1681 -2.94128 -11.3202L45.7199 38.9996ZM35.1888 45.6746C34.0442 46.1057 32.5302 46.592 30.7613 46.9544C29.1103 47.2926 27.7344 47.4211 26.7505 47.4643L23.6805 -22.4683C18.7438 -22.2516 14.4239 -21.3049 10.5167 -19.8333L35.1888 45.6746ZM26.7685 47.4635C27.3234 47.4389 27.3601 47.4387 27.5412 47.436C27.9284 47.4301 28.6175 47.4265 30.3556 47.4265V-22.5735C26.8295 -22.5735 25.8009 -22.5625 23.6625 -22.4675L26.7685 47.4635ZM30.3556 47.4265C32.0872 47.4265 32.778 47.4304 33.1643 47.4362C33.354 47.4391 33.397 47.4396 33.971 47.4647L37.0234 -22.4687C34.9115 -22.5609 33.9059 -22.5735 30.3556 -22.5735V47.4265ZM33.9594 47.4642C32.9577 47.4201 31.5777 47.2892 29.932 46.9511C28.1707 46.5893 26.6974 46.1115 25.6564 45.7242L50.0634 -19.8829C46.3082 -21.2799 42.0419 -22.248 37.035 -22.4682L33.9594 47.4642ZM25.5906 45.6997C24.0806 45.1344 22.1353 44.2632 20.0244 42.9366C17.9036 41.6039 16.2448 40.2071 15.0273 39.0329L63.6195 -11.3535C59.6696 -15.1628 55.1348 -17.9848 50.1293 -19.8584L25.5906 45.6997ZM15.0273 39.0329C13.7813 37.8313 12.2832 36.1749 10.8394 34.0287C9.39847 31.8867 8.44055 29.8946 7.81354 28.3392L72.7366 2.16676C70.6861 -2.91975 67.6481 -7.4684 63.6195 -11.3535L15.0273 39.0329ZM7.82161 28.3592C7.33362 27.1509 6.77391 25.5308 6.35334 23.6162C5.95927 21.8223 5.80428 20.3028 5.75145 19.1804L75.674 15.889C75.4307 10.7189 74.3636 6.19556 72.7285 2.14675L7.82161 28.3592ZM5.7523 19.1983C5.7773 19.7236 5.77547 19.7166 5.77742 19.8372C5.78292 20.1787 5.78674 20.8165 5.78674 22.5H75.7867C75.7867 19.0788 75.7755 18.0208 75.6732 15.8711L5.7523 19.1983ZM5.78674 22.5C5.78674 24.1835 5.78292 24.8214 5.77742 25.1628C5.77547 25.2834 5.7773 25.2764 5.7523 25.8017L75.6732 29.129C75.7755 26.9792 75.7867 25.9212 75.7867 22.5H5.78674ZM5.75159 25.8167C5.80508 24.6824 5.96181 23.1611 6.35547 21.372C6.77525 19.4641 7.32907 17.8686 7.79045 16.7183L72.7597 42.7758C74.3477 38.8166 75.4281 34.3251 75.6739 29.114L5.75159 25.8167ZM7.81354 16.6608C8.44682 15.0899 9.40937 13.0935 10.8515 10.9527C12.2947 8.8103 13.7884 7.16142 15.0215 5.97164L63.6252 56.3471C67.625 52.4879 70.6737 47.9504 72.7366 42.8333L7.81354 16.6608ZM15.0215 5.97164C16.256 4.78064 17.9203 3.38325 20.0356 2.05504C22.1362 0.736029 24.0639 -0.126687 25.5431 -0.682777L50.1768 64.8396C55.1119 62.9842 59.6461 60.1862 63.6252 56.3471L15.0215 5.97164ZM25.5239 -0.675559C26.6685 -1.10665 28.1825 -1.59292 29.9514 -1.95531C31.6025 -2.29355 32.9783 -2.42207 33.9622 -2.46526L37.0322 67.4674C41.9689 67.2507 46.2888 66.3039 50.196 64.8324L25.5239 -0.675559ZM33.9442 -2.46446C33.3894 -2.43982 33.3527 -2.43964 33.1715 -2.43691C32.784 -2.43109 32.0944 -2.42748 30.3556 -2.42748V67.5725C33.8829 67.5725 34.9117 67.5616 37.0502 67.4666L33.9442 -2.46446ZM30.3556 -2.42748C28.6167 -2.42748 27.9275 -2.43109 27.5405 -2.43691C27.36 -2.43963 27.3241 -2.43978 26.769 -2.46444L23.662 67.4666C25.8003 67.5616 26.828 67.5725 30.3556 67.5725V-2.42748ZM23.5724 -24.6787C19.0309 -24.4789 14.4088 -23.6705 9.71025 -21.9049L34.3336 43.6214C32.986 44.1278 31.5313 44.5491 30.0222 44.8416C28.5759 45.122 27.4074 45.2203 26.6479 45.2537L23.5724 -24.6787ZM9.74101 -21.9164C4.76589 -20.0522 -0.119555 -17.1684 -4.52534 -12.9204L44.0615 37.4713C42.7554 38.7307 41.1687 40.0091 39.299 41.1692C37.4398 42.3226 35.7078 43.1065 34.3028 43.6329L9.74101 -21.9164ZM-4.52534 -12.9204C-8.99869 -8.60722 -12.1234 -3.70544 -14.1761 1.40329L50.7772 27.5007C50.1807 28.9854 49.3059 30.7849 48.0397 32.6901C46.7699 34.6005 45.3909 36.1895 44.0615 37.4713L-4.52534 -12.9204ZM-14.166 1.37828C-16.1184 6.2267 -17.0279 11.0428 -17.2515 15.7857L52.6708 19.083C52.6289 19.9712 52.5082 21.2794 52.1776 22.8695C51.8335 24.5245 51.3436 26.0942 50.7672 27.5257L-14.166 1.37828ZM-17.2504 15.7612C-17.3535 17.9153 -17.3674 18.9948 -17.3674 22.4999H52.6326C52.6326 20.7989 52.6369 20.1412 52.6427 19.7904C52.645 19.6516 52.6438 19.6461 52.6696 19.1075L-17.2504 15.7612ZM-17.3674 22.4999C-17.3674 26.005 -17.3535 27.0846 -17.2504 29.2387L52.6696 25.8923C52.6438 25.3537 52.645 25.3483 52.6427 25.2095C52.6369 24.8586 52.6326 24.201 52.6326 22.4999H-17.3674ZM-17.2515 29.214C-17.0279 33.9574 -16.1183 38.7734 -14.166 43.6216L50.7672 17.4742C51.3434 18.9053 51.8334 20.4749 52.1776 22.1302C52.5082 23.7205 52.6289 25.0288 52.6708 25.917L-17.2515 29.214ZM-14.1733 43.6034C-12.1252 48.6978 -9.00421 53.603 -4.52171 57.9237L44.0579 7.52508C45.3934 8.81236 46.7733 10.4038 48.0417 12.3126C49.3062 14.2156 50.1793 16.0119 50.7745 17.4923L-14.1733 43.6034ZM-4.52171 57.9237C-0.106501 62.1796 4.7742 65.0499 9.71065 66.9049L34.3332 1.37831C35.7194 1.8992 37.4409 2.67783 39.2942 3.82729C41.1596 4.98423 42.7471 6.26155 44.0579 7.52508L-4.52171 57.9237ZM9.73059 66.9124C14.4089 68.6671 19.0191 69.4782 23.5724 69.6785L26.6479 -0.253911C27.4087 -0.220451 28.5783 -0.121933 30.0252 0.158661C31.5351 0.451468 32.982 0.871538 34.3132 1.37082L9.73059 66.9124ZM23.5756 69.6786C25.6928 69.7715 26.7198 69.7867 30.3556 69.7867V-0.2133C28.6036 -0.2133 27.8927 -0.217612 27.4962 -0.223845C27.2885 -0.227109 27.2337 -0.228202 26.6447 -0.254053L23.5756 69.6786ZM30.3556 69.7867C33.9678 69.7867 35.0177 69.7732 37.1617 69.6775L34.0404 -0.252898C33.4708 -0.227472 33.4213 -0.226679 33.2214 -0.223572C32.8236 -0.217389 32.1137 -0.2133 30.3556 -0.2133V69.7867ZM37.1387 69.6785C41.6846 69.4786 46.3026 68.6692 50.9941 66.9073L26.3844 1.37591C27.7262 0.872019 29.1782 0.451077 30.6879 0.158377C32.1346 -0.122122 33.3036 -0.220503 34.0634 -0.253917L37.1387 69.6785ZM51.0071 66.9024C55.9279 65.0522 60.8121 62.1861 65.2365 57.9202L16.6496 7.52858C17.9653 6.26008 19.5554 4.98146 21.4207 3.82494C23.2732 2.67632 24.9919 1.89949 26.3715 1.38078L51.0071 66.9024ZM65.2365 57.9202C69.7295 53.5882 72.8348 48.6875 74.8717 43.6351L9.94947 17.4607C10.5373 16.0027 11.4042 14.217 12.6654 12.3183C13.9314 10.4122 15.3107 8.81956 16.6496 7.52858L65.2365 57.9202ZM74.8772 43.6216C76.8223 38.7911 77.7421 33.971 77.964 29.187L8.03914 25.944C8.08111 25.0389 8.20315 23.7195 8.53574 22.1217C8.88161 20.4602 9.37252 18.8934 9.94403 17.4742L74.8772 43.6216ZM77.9629 29.2103C78.0635 27.0728 78.0776 26.0082 78.0776 22.4999H8.07759C8.07759 24.1993 8.07331 24.8606 8.06746 25.2155C8.06503 25.3631 8.06589 25.3753 8.04023 25.9207L77.9629 29.2103ZM78.0776 22.4999C78.0776 18.9924 78.0635 17.926 77.9628 15.7883L8.04029 19.0804C8.06589 19.6242 8.06502 19.6363 8.06746 19.7839C8.07331 20.1389 8.07759 20.8005 8.07759 22.4999H78.0776ZM77.9627 15.7858C77.7392 11.0467 76.8307 6.22651 74.8743 1.3712L9.94688 27.5328C9.36792 26.0959 8.87747 24.5237 8.53342 22.8686C8.20288 21.2785 8.08226 19.9705 8.0404 19.0829L77.9627 15.7858ZM74.8717 1.36478C72.819 -3.72679 69.7078 -8.59557 65.2763 -12.8819L16.6098 37.4328C15.2986 36.1645 13.9335 34.59 12.6736 32.6949C11.4165 30.8042 10.5454 29.0172 9.94947 27.5392L74.8717 1.36478ZM65.2763 -12.8819C60.8214 -17.1909 55.9072 -20.0635 50.9909 -21.9091L26.3897 43.6255C25.0097 43.1075 23.2847 42.3294 21.4232 41.1753C19.5476 40.0126 17.9428 38.7221 16.6098 37.4328L65.2763 -12.8819ZM50.9816 -21.9125C46.3179 -23.6618 41.7029 -24.4812 37.1156 -24.6797L34.0885 45.2548C33.3111 45.2211 32.1322 45.1214 30.6801 44.8395C29.1667 44.5458 27.7222 44.1253 26.399 43.629L50.9816 -21.9125ZM37.1374 -24.6788C35.0202 -24.7717 33.9919 -24.7869 30.3566 -24.7869V45.2131C32.1085 45.2131 32.8197 45.2174 33.2163 45.2237C33.424 45.2269 33.4787 45.228 34.0667 45.2539L37.1374 -24.6788ZM30.3566 -24.7869C26.7443 -24.7869 25.6944 -24.7733 23.5503 -24.6777L26.67 45.2528C27.2401 45.2273 27.2901 45.2265 27.4905 45.2234C27.8885 45.2172 28.5986 45.2131 30.3566 45.2131V-24.7869Z" fill="white" mask="url(#path-3-inside-1_209_153)"/>
<path d="M26.1153 22.4999C26.1153 20.2381 28.0134 18.404 30.3556 18.404C32.6977 18.404 34.5969 20.2381 34.5969 22.4999C34.5969 24.7618 32.6977 26.5958 30.3556 26.5958C28.0134 26.5958 26.1153 24.7618 26.1153 22.4999ZM23.8225 22.4999C23.8225 25.9844 26.7473 28.809 30.3556 28.809C33.9638 28.809 36.8887 25.9844 36.8887 22.4999C36.8887 19.0154 33.9638 16.1908 30.3556 16.1908C26.7473 16.1908 23.8225 19.0154 23.8225 22.4999ZM35.6206 15.9406C35.6205 16.2323 35.7099 16.5174 35.8775 16.7599C36.0452 17.0024 36.2836 17.1915 36.5625 17.3032C36.8414 17.4149 37.1484 17.4442 37.4446 17.3874C37.7408 17.3307 38.0129 17.1903 38.2265 16.9842C38.4401 16.7781 38.5856 16.5154 38.6446 16.2295C38.7037 15.9435 38.6736 15.647 38.5581 15.3775C38.4427 15.1081 38.2471 14.8777 37.9961 14.7156C37.7451 14.5535 37.4499 14.4669 37.1479 14.4668C36.7432 14.467 36.3544 14.6223 36.0682 14.8987C35.7819 15.175 35.6209 15.5498 35.6206 15.9406ZM25.2155 32.5011C23.975 32.4465 23.3008 32.247 22.8528 32.0784C22.2588 31.8551 21.8349 31.5891 21.3893 31.1593C20.9437 30.7296 20.6679 30.3207 20.4376 29.7471C20.263 29.3146 20.0564 28.6633 20 27.4654C19.9383 26.1702 19.926 25.7812 19.926 22.5C19.926 19.2189 19.9393 18.8309 20 17.5347C20.0565 16.3368 20.2646 15.6867 20.4376 15.253C20.6689 14.6793 20.9443 14.27 21.3893 13.8397C21.8343 13.4094 22.2577 13.143 22.8528 12.9207C23.3006 12.752 23.975 12.5524 25.2155 12.498C26.5566 12.4384 26.9595 12.4265 30.3556 12.4265C33.7517 12.4265 34.155 12.4394 35.4972 12.498C36.7377 12.5525 37.4108 12.7536 37.8599 12.9207C38.4539 13.143 38.8778 13.41 39.3234 13.8397C39.769 14.2694 40.0438 14.6793 40.2751 15.253C40.4497 15.6855 40.6563 16.3368 40.7127 17.5347C40.7744 18.8309 40.7867 19.2189 40.7867 22.5C40.7867 25.7812 40.7744 26.1691 40.7127 27.4654C40.6562 28.6633 40.4486 29.3144 40.2751 29.7471C40.0438 30.3207 39.7684 30.73 39.3234 31.1593C38.8784 31.5887 38.4539 31.8551 37.8599 32.0784C37.4121 32.2471 36.7377 32.4466 35.4972 32.5011C34.1561 32.5606 33.7532 32.5725 30.3556 32.5725C26.9579 32.5725 26.5562 32.5606 25.2155 32.5011ZM25.1101 10.2875C23.7557 10.3471 22.8302 10.5545 22.0219 10.8582C21.1848 11.1719 20.4762 11.5927 19.7681 12.2754C19.06 12.9582 18.6254 13.6436 18.3006 14.452C17.9861 15.233 17.7713 16.1263 17.7096 17.4343C17.6469 18.7444 17.6326 19.1632 17.6326 22.4999C17.6326 25.8366 17.6469 26.2554 17.7096 27.5655C17.7713 28.8736 17.9861 29.7668 18.3006 30.5479C18.6254 31.3557 19.0601 32.0419 19.7681 32.7244C20.4761 33.4068 21.1848 33.8271 22.0219 34.1416C22.8317 34.4453 23.7557 34.6527 25.1101 34.7123C26.4674 34.7719 26.9004 34.7867 30.3556 34.7867C33.8108 34.7867 34.2445 34.7728 35.601 34.7123C36.9556 34.6527 37.8805 34.4453 38.6893 34.1416C39.5258 33.8271 40.235 33.4071 40.9431 32.7244C41.6512 32.0416 42.0849 31.3557 42.4106 30.5479C42.7251 29.7668 42.9409 28.8735 43.0016 27.5655C43.0632 26.2545 43.0776 25.8366 43.0776 22.4999C43.0776 19.1632 43.0632 18.7444 43.0016 17.4343C42.9399 16.1262 42.7251 15.2325 42.4106 14.452C42.0849 13.6441 41.6501 12.9593 40.9431 12.2754C40.2361 11.5916 39.5258 11.1719 38.6903 10.8582C37.8805 10.5545 36.9555 10.3461 35.6021 10.2875C34.2455 10.228 33.8118 10.2131 30.3566 10.2131C26.9014 10.2131 26.4674 10.227 25.1101 10.2875Z" fill="url(#paint1_radial_209_153)"/>
<path d="M26.1153 22.4999C26.1153 20.2381 28.0134 18.404 30.3556 18.404C32.6977 18.404 34.5969 20.2381 34.5969 22.4999C34.5969 24.7618 32.6977 26.5958 30.3556 26.5958C28.0134 26.5958 26.1153 24.7618 26.1153 22.4999ZM23.8225 22.4999C23.8225 25.9844 26.7473 28.809 30.3556 28.809C33.9638 28.809 36.8887 25.9844 36.8887 22.4999C36.8887 19.0154 33.9638 16.1908 30.3556 16.1908C26.7473 16.1908 23.8225 19.0154 23.8225 22.4999ZM35.6206 15.9406C35.6205 16.2323 35.7099 16.5174 35.8775 16.7599C36.0452 17.0024 36.2836 17.1915 36.5625 17.3032C36.8414 17.4149 37.1484 17.4442 37.4446 17.3874C37.7408 17.3307 38.0129 17.1903 38.2265 16.9842C38.4401 16.7781 38.5856 16.5154 38.6446 16.2295C38.7037 15.9435 38.6736 15.647 38.5581 15.3775C38.4427 15.1081 38.2471 14.8777 37.9961 14.7156C37.7451 14.5535 37.4499 14.4669 37.1479 14.4668C36.7432 14.467 36.3544 14.6223 36.0682 14.8987C35.7819 15.175 35.6209 15.5498 35.6206 15.9406ZM25.2155 32.5011C23.975 32.4465 23.3008 32.247 22.8528 32.0784C22.2588 31.8551 21.8349 31.5891 21.3893 31.1593C20.9437 30.7296 20.6679 30.3207 20.4376 29.7471C20.263 29.3146 20.0564 28.6633 20 27.4654C19.9383 26.1702 19.926 25.7812 19.926 22.5C19.926 19.2189 19.9393 18.8309 20 17.5347C20.0565 16.3368 20.2646 15.6867 20.4376 15.253C20.6689 14.6793 20.9443 14.27 21.3893 13.8397C21.8343 13.4094 22.2577 13.143 22.8528 12.9207C23.3006 12.752 23.975 12.5524 25.2155 12.498C26.5566 12.4384 26.9595 12.4265 30.3556 12.4265C33.7517 12.4265 34.155 12.4394 35.4972 12.498C36.7377 12.5525 37.4108 12.7536 37.8599 12.9207C38.4539 13.143 38.8778 13.41 39.3234 13.8397C39.769 14.2694 40.0438 14.6793 40.2751 15.253C40.4497 15.6855 40.6563 16.3368 40.7127 17.5347C40.7744 18.8309 40.7867 19.2189 40.7867 22.5C40.7867 25.7812 40.7744 26.1691 40.7127 27.4654C40.6562 28.6633 40.4486 29.3144 40.2751 29.7471C40.0438 30.3207 39.7684 30.73 39.3234 31.1593C38.8784 31.5887 38.4539 31.8551 37.8599 32.0784C37.4121 32.2471 36.7377 32.4466 35.4972 32.5011C34.1561 32.5606 33.7532 32.5725 30.3556 32.5725C26.9579 32.5725 26.5562 32.5606 25.2155 32.5011ZM25.1101 10.2875C23.7557 10.3471 22.8302 10.5545 22.0219 10.8582C21.1848 11.1719 20.4762 11.5927 19.7681 12.2754C19.06 12.9582 18.6254 13.6436 18.3006 14.452C17.9861 15.233 17.7713 16.1263 17.7096 17.4343C17.6469 18.7444 17.6326 19.1632 17.6326 22.4999C17.6326 25.8366 17.6469 26.2554 17.7096 27.5655C17.7713 28.8736 17.9861 29.7668 18.3006 30.5479C18.6254 31.3557 19.0601 32.0419 19.7681 32.7244C20.4761 33.4068 21.1848 33.8271 22.0219 34.1416C22.8317 34.4453 23.7557 34.6527 25.1101 34.7123C26.4674 34.7719 26.9004 34.7867 30.3556 34.7867C33.8108 34.7867 34.2445 34.7728 35.601 34.7123C36.9556 34.6527 37.8805 34.4453 38.6893 34.1416C39.5258 33.8271 40.235 33.4071 40.9431 32.7244C41.6512 32.0416 42.0849 31.3557 42.4106 30.5479C42.7251 29.7668 42.9409 28.8735 43.0016 27.5655C43.0632 26.2545 43.0776 25.8366 43.0776 22.4999C43.0776 19.1632 43.0632 18.7444 43.0016 17.4343C42.9399 16.1262 42.7251 15.2325 42.4106 14.452C42.0849 13.6441 41.6501 12.9593 40.9431 12.2754C40.2361 11.5916 39.5258 11.1719 38.6903 10.8582C37.8805 10.5545 36.9555 10.3461 35.6021 10.2875C34.2455 10.228 33.8118 10.2131 30.3566 10.2131C26.9014 10.2131 26.4674 10.227 25.1101 10.2875Z" stroke="white"/>
<defs>
<filter id="filter0_d_209_153" x="0.5" y="4.5" width="187" height="44" filterUnits="userSpaceOnUse" color-interpolation-filters="sRGB">
<feFlood flood-opacity="0" result="BackgroundImageFix"/>
<feColorMatrix in="SourceAlpha" type="matrix" values="0 0 0 0 0 0 0 0 0 0 0 0 0 0 0 0 0 0 127 0" result="hardAlpha"/>
<feOffset dy="4"/>
<feGaussianBlur stdDeviation="2"/>
<feComposite in2="hardAlpha" operator="out"/>
<feColorMatrix type="matrix" values="0 0 0 0 0 0 0 0 0 0 0 0 0 0 0 0 0 0 0.25 0"/>
<feBlend mode="normal" in2="BackgroundImageFix" result="effect1_dropShadow_209_153"/>
<feBlend mode="normal" in="SourceGraphic" in2="effect1_dropShadow_209_153" result="shape"/>
</filter>
<filter id="filter1_b_209_153" x="46.4" y="10.2" width="129.202" height="27.44" filterUnits="userSpaceOnUse" color-interpolation-filters="sRGB">
<feFlood flood-opacity="0" result="BackgroundImageFix"/>
<feGaussianBlur in="BackgroundImageFix" stdDeviation="2"/>
<feComposite in2="SourceAlpha" operator="in" result="effect1_backgroundBlur_209_153"/>
<feBlend mode="normal" in="SourceGraphic" in2="effect1_backgroundBlur_209_153" result="shape"/>
</filter>
<radialGradient id="paint0_radial_209_153" cx="0" cy="0" r="1" gradientUnits="userSpaceOnUse" gradientTransform="translate(21.0132 34.9028) scale(33.2177 32.0787)">
<stop offset="0.09" stop-color="white"/>
<stop offset="0.78" stop-color="white"/>
</radialGradient>
<radialGradient id="paint1_radial_209_153" cx="0" cy="0" r="1" gradientUnits="userSpaceOnUse" gradientTransform="translate(33.0645 36.0037) scale(26.1801 25.2825)">
<stop offset="0.64" stop-color="white"/>
<stop offset="1" stop-color="white"/>
</radialGradient>
</defs>
</svg>
